<svg width="24" height="25" viewBox="0 0 24 25" fill="none" xmlns="http://www.w3.org/2000/svg">
<path d="M16 13.669V17.869C16 21.369 14.6 22.769 11.1 22.769H6.9C3.4 22.769 2 21.369 2 17.869V13.669C2 10.169 3.4 8.76904 6.9 8.76904H11.1C14.6 8.76904 16 10.169 16 13.669Z" fill="#1E854A"/>
<path d="M17.1 2.76904H12.9C9.81693 2.76904 8.37099 3.86313 8.06975 6.50806C8.00673 7.06139 8.465 7.51904 9.02191 7.51904H11.1C15.3 7.51904 17.25 9.46904 17.25 13.669V15.7471C17.25 16.304 17.7077 16.7623 18.261 16.6993C20.9059 16.3981 22 14.9521 22 11.869V7.66904C22 4.16904 20.6 2.76904 17.1 2.76904Z" fill="#1E854A"/>
</svg>
