<svg width="106" height="106" viewBox="0 0 106 106" fill="none" xmlns="http://www.w3.org/2000/svg">
<path d="M65.4688 17.666V34.291H58.9062V17.666C58.9062 16.4848 57.8563 15.916 57.1562 15.916C56.9375 15.916 56.7188 15.9598 56.5 16.0473L21.8062 29.1285C19.4875 30.0035 18 32.191 18 34.6848V37.616C14.0187 40.591 11.4375 45.3598 11.4375 50.741V34.6848C11.4375 29.4785 14.6313 24.841 19.4875 23.0035L54.225 9.87852C55.1875 9.52852 56.1937 9.35352 57.1562 9.35352C61.5312 9.35352 65.4688 12.8973 65.4688 17.666Z" fill="#009254"/>
<path d="M94.5625 63.8223V68.1973C94.5625 69.3785 93.6437 70.341 92.4187 70.3848H86.0312C83.7125 70.3848 81.6125 68.6785 81.4375 66.4035C81.3062 65.0473 81.8312 63.7785 82.7062 62.9035C83.4937 62.0723 84.5875 61.6348 85.7687 61.6348H92.375C93.6437 61.6785 94.5625 62.641 94.5625 63.8223Z" fill="#009254"/>
<path d="M85.725 57.041H90.1875C92.5938 57.041 94.5625 55.0723 94.5625 52.666V50.741C94.5625 41.6848 87.1687 34.291 78.1125 34.291H27.8875C24.1688 34.291 20.7563 35.516 18 37.616C14.0187 40.591 11.4375 45.3598 11.4375 50.741V80.1848C11.4375 89.241 18.8313 96.6348 27.8875 96.6348H78.1125C87.1687 96.6348 94.5625 89.241 94.5625 80.1848V79.3535C94.5625 76.9473 92.5938 74.9785 90.1875 74.9785H86.3812C82.1812 74.9785 78.1562 72.3973 77.0625 68.3285C76.1438 65.0035 77.2375 61.8098 79.425 59.666C81.0438 58.0035 83.275 57.041 85.725 57.041ZM61.75 56.166H31.125C29.3312 56.166 27.8438 54.6785 27.8438 52.8848C27.8438 51.091 29.3312 49.6035 31.125 49.6035H61.75C63.5438 49.6035 65.0312 51.091 65.0312 52.8848C65.0312 54.6785 63.5438 56.166 61.75 56.166Z" fill="#009254"/>
</svg>
